<svg fill="none" height="40" viewBox="0 0 184 40" width="184" xmlns="http://www.w3.org/2000/svg"><g fill="#204156"><path d="m7.89563 27.0029c-.34537-1.0097-.49951-2.2927-.49951-4.0019 0-1.7093.15414-2.9912.50049-4.002.92195-2.8751 3.34239-4.4683 6.53369-4.4683 2.3824 0 4.2283.9717 5.4966 2.5259.029.0326.0511.0708.065.1122.0138.0415.019.0853.0154.1288-.0037.0436-.0161.0859-.0367.1245-.0205.0385-.0487.0725-.0828.0998l-2.0751 1.8654c-.1541.1171-.3463.1171-.4615-.078-.8078-.8937-1.6146-1.3981-2.9209-1.3981-1.4215 0-2.4976.6995-2.96 2.0976-.2313.8166-.3074 1.7492-.3074 2.9922 0 1.2429.0771 2.2146.3464 3.0312.4615 1.359 1.5366 2.0975 2.959 2.0975 1.3073 0 2.1532-.5043 2.922-1.398.1151-.1561.3073-.1561.4605-.039l2.0761 1.8653c.1531.1171.1151.3113.039.4664-1.2683 1.5151-3.1142 2.4858-5.4976 2.4858-3.1902-.039-5.64974-1.5931-6.57169-4.5073zm71.33657 0c-.3463-1.0097-.5005-2.2927-.5005-4.0019 0-1.7093.1542-2.9912.4995-4.002.923-2.8751 3.3444-4.4683 6.5347-4.4683 2.3824 0 4.2663.9717 5.4966 2.5259.029.0326.0511.0708.065.1122.0138.0415.019.0853.0154.1288-.0037.0436-.0161.0859-.0367.1245-.0205.0385-.0487.0725-.0828.0998l-2.0751 1.8654c-.1551.1171-.3463.1171-.4614-.078-.8079-.8937-1.6147-1.3981-2.921-1.3981-1.4215 0-2.4976.6995-2.96 2.0976-.2683.8166-.3464 1.7492-.3464 2.9922 0 1.2429.0781 2.2146.3464 3.0312.4614 1.359 1.5385 2.0975 2.96 2.0975 1.3063 0 2.1522-.5043 2.921-1.398.1151-.1561.3073-.1561.4604-.039l2.0761 1.8653c.1542.1171.1161.3113.0391.4664-1.2683 1.5151-3.1142 2.4858-5.4966 2.4858-3.1903-.039-5.6117-1.5931-6.5347-4.5073zm83.6368 4.08c-.192 0-.346-.1171-.346-.3492v-9.3259c0-2.0976-1.038-3.5356-2.998-3.5356-1.921 0-3.036 1.438-3.036 3.5356v9.3259c0 .1951-.116.3492-.347.3492h-3.036c-.193 0-.346-.1171-.346-.3492v-9.3259c0-2.0976-1.037-3.5356-2.998-3.5356-1.922 0-3.037 1.438-3.037 3.5356v9.3259c0 .1951-.115.3492-.345.3492h-3.038c-.191 0-.345-.1171-.345-.3492v-15.5044c0-.1952.116-.3503.345-.3503h3.038c.192 0 .345.1171.345.3493v1.1668h.039c.692-1.0107 2.075-1.8654 4.19-1.8654 1.883 0 3.383.7766 4.343 2.1366h.039c1.229-1.359 2.805-2.1366 5.073-2.1366 3.69 0 5.766 2.5649 5.766 6.0225v10.2195c0 .1951-.116.3493-.347.3493l-2.959-.0391zm7.595 5.7122c-.193 0-.346-.1171-.346-.3502v-2.681c0-.1942.116-.3483.346-.3483h.577c1.268 0 1.883-.5834 2.382-1.9054l.462-1.36-5.804-15.2702c-.077-.1942.077-.3493.269-.3493h3.268c.192 0 .345.1171.384.3493l3.575 10.5697h.077l3.42-10.5687c.077-.1952.192-.3513.384-.3513h3.114c.192 0 .346.1171.269.3513l-5.996 16.9014c-1.384 3.8469-2.691 5.0517-5.343 5.0517zm-138.2162-10.8029c.2693-.8537.3454-1.6322.3454-2.9912 0-1.3591-.0771-2.0976-.3454-2.9922-.4614-1.36-1.4995-2.0976-2.959-2.0976-1.4615 0-2.5366.7766-2.998 2.0976-.2703.8546-.3464 1.5931-.3464 2.9922 0 1.359.0771 2.1366.3464 2.9912.4614 1.361 1.4985 2.0995 2.998 2.0995 1.4595.039 2.4976-.7395 2.959-2.0995zm-9.5317 1.0107c-.3463-1.1268-.5385-2.2146-.5385-4.0019s.1541-2.8361.5385-4.002c.8829-2.8361 3.3044-4.4683 6.5337-4.4683 3.1902 0 5.6117 1.6322 6.4956 4.4683.3463 1.1259.5385 2.2147.5385 4.002s-.1541 2.8361-.5385 4.0019c-.8839 2.8361-3.3054 4.4683-6.4956 4.4683-3.1903 0-5.6117-1.6322-6.5337-4.4683zm77.4079-12.4722c-2.6147 0-4.3435.6215-5.6118 1.5932-.1161.1171-.1541.2722-.078.4273l1.2312 2.2146c.1151.1552.3073.1942.4605.0781.7688-.6215 1.8449-1.1268 3.6127-1.1268 2.5764 0 3.4604.7766 3.5364 2.5248v5.402c0 1.8634-1.268 2.758-3.5364 2.758-1.7669 0-2.7278-.6604-2.7278-2.0195 0-1.5161 1.037-2.1775 3.4202-2.1775h.731c.191 0 .345-.1161.345-.3483v-2.1376c0-.1941-.115-.3502-.345-.3502h-1.3073c-3.92 0-6.3415 1.6331-6.3415 5.1297 0 3.3795 2.4215 4.9347 5.3424 4.9347 2.2294 0 3.7274-.7776 4.4584-1.8654h.038v1.1659c0 .1951.115.3492.347.3492h2.766c.193 0 .347-.1171.347-.3492v-10.5298c-.077-3.9639-1.846-5.6732-6.688-5.6732zm-38.9172 6.839c-.076 0-.1531.0391-.1531.1561v2.5239c0 .0781.039.1561.1541.1561h8.1483c.2303 0 .3464-.117.3464-.3492 0-2.6049-.1542-3.7308-.5386-4.8586-.8849-2.757-3.2683-4.4683-6.5346-4.4683-3.1512 0-5.6117 1.6332-6.4956 4.4683-.3454 1.0508-.5376 2.3317-.5376 4.0039 0 1.6693.2303 2.9132.5756 3.962.8849 2.8371 3.2683 4.5073 6.6117 4.5073 2.921 0 5.1503-1.1268 6.5337-2.758.1161-.1561.1161-.3493-.039-.4664l-1.921-1.7492c-.1532-.1161-.3454-.1161-.4995.078-.8068.8946-1.922 1.5551-3.7288 1.5551-1.7668 0-3.0361-.8556-3.5356-2.4488-.0781-.2331-.1542-.4663-.1932-.6995-.1325-.77-.1965-1.5503-.1912-2.3317.039-.9317.0771-1.5141.1922-2.2536v-.0781c.039-.1932.0771-.3483.1161-.5044.4215-1.3209 1.6137-2.0975 3.1122-2.0975 1.4995 0 2.6527.7766 3.0751 2.0975.1151.3893.1922.8166.1922 1.36 0 .1171-.0771.1951-.1922.1951zm-8.6741-13.34434h-3.0371c-.1922 0-.3453.11707-.3453.35024v15.2702c-.0391.9327-.1542 1.5542-.3074 2.0976-.4234 1.36-1.4604 2.0605-2.96 2.0605-1.4604 0-2.4985-.7395-2.9209-2.0595-.2312-.7386-.3464-1.5551-.3464-3.0312 0-1.4771.1152-2.2927.3464-3.0313.4224-1.3209 1.4214-2.0585 2.8449-2.0975h1.3063c.0771 0 .1151-.0781.1151-.1561v-3.0673c0-.0781-.039-.1171-.1151-.1561h-2.2683c-2.6517.039-4.5737 1.3209-5.3805 3.8868-.3844 1.2429-.5766 2.3698-.5766 4.5463 0 2.1757.1542 3.3025.5756 4.5464.8078 2.6029 2.8069 3.8849 5.4976 3.8849 2.1522 0 3.4585-.8156 4.1893-1.9044h.039v1.2048c0 .1952.1151.3493.3454.3493h3.0361c.1922 0 .3463-.1171.3463-.3493v-22.14922c-.039-.07805-.1932-.19414-.3844-.19414zm79.3683 13.34244c-.077 0-.154.039-.154.1561v2.5249c0 .078.038.1561.154.1561h8.149c.23 0 .346-.1171.346-.3493 0-2.6049-.154-3.7307-.538-4.8585-.885-2.7571-3.268-4.4683-6.535-4.4683-3.152 0-5.612 1.6331-6.496 4.4683-.345 1.0507-.537 2.3317-.537 4.0039 0 1.6692.23 2.9131.576 3.9619.884 2.8371 3.268 4.5073 6.611 4.5073 2.921 0 5.15-1.1268 6.534-2.758.116-.1561.116-.3493-.038-.4664l-1.922-1.7492c-.153-.1161-.346-.1161-.5.078-.807.8947-1.921 1.5551-3.729 1.5551-1.766 0-3.036-.8556-3.535-2.4487-.077-.2332-.154-.4664-.193-.6995-.132-.7702-.196-1.5504-.192-2.3318.039-.9317.078-1.5141.193-2.2536v-.0781c.039-.1931.077-.3483.116-.5043.421-1.321 1.613-2.0976 3.112-2.0976s2.653.7766 3.075 2.0976c.115.3892.192.8165.192 1.36 0 .117-.077.1951-.192.1951h-4.497zm-8.676-13.34244h-3.037c-.192 0-.345.11707-.345.35024v15.3093c-.039.9317-.154 1.5541-.307 2.0975-.424 1.36-1.461 2.0986-2.96 2.0986-1.5 0-2.499-.7386-2.921-2.0976-.232-.7385-.347-1.5551-.347-3.0312 0-1.4771.116-2.2927.347-3.0312.422-1.321 1.421-2.0595 2.845-2.0976h1.306c.192 0 .345-.1171.345-.3512v-2.68c0-.1951-.115-.3503-.345-.3503h-2.229c-2.653.0391-4.613 1.322-5.42 3.8859-.384 1.2429-.576 2.3707-.576 4.5854 0 2.1756.154 3.3414.576 4.5853.807 2.603 2.806 3.8859 5.497 3.8859 2.152 0 3.458-.8166 4.228-1.9044h.038v1.2039c0 .1951.115.3502.345.3502h3.036c.194 0 .347-.117.347-.3502v-22.14635c-.077-.19512-.231-.31121-.423-.31121zm-43.8503 30.56974c0 .4898.1122.6507.6419.6507h10.2829c.4927 0 .643-.1209.643-.6497v-2.602c0-.4897-.1132-.6507-.6439-.6507h-10.281c-.5493 0-.642.121-.642.6507v2.601z"/><path clip-rule="evenodd" d="m4.81953 35.3434h-.63708c0-.1541.07708-.039 0 0v-31.21949c0 .15512.07708.03902 0 0h68.76485c-.077.03902 0 .15512 0 0v30.56879c0 .4585-.077.5736 0 .6507zm71.98437-35.121935c-.078.078049-.078.117073 0 0-.078.078049-.078.078049 0 0-.1541.039025-.2312 0-.6429 0h-75.834157c.078049.078049 0 .195122 0 .650732v38.373703c0-.1952.039025-.1171 0 0h75.834157c.4117 0 .4878-.0391.6429 0-.039-.1561 0-.2342 0-.6498v-38.37561z" fill-rule="evenodd"/></g></svg>