<svg fill="none" height="40" viewBox="0 0 178 40" width="178" xmlns="http://www.w3.org/2000/svg" xmlns:xlink="http://www.w3.org/1999/xlink"><clipPath id="a"><path d="m0 0h177.778v40h-177.778z"/></clipPath><g clip-path="url(#a)" clip-rule="evenodd" fill-rule="evenodd"><path d="m20 0c-11.01983 0-20 8.98017-20 20 0 11.0198 8.98017 20 20 20 11.0198 0 20-8.9802 20-20 0-11.01983-8.9519-20-20-20zm0 35.5241c-8.5552 0-15.49576-6.9406-15.49576-15.4958s6.94056-15.49573 15.49576-15.49573 15.4957 6.94053 15.4957 15.49573-6.9405 15.4958-15.4957 15.4958zm-.9348-17.8756-3.2012-3.1728-2.3513 2.3513-2.2662-2.2946-3.20119 3.1728 2.29459 2.2946-2.4079 2.408 3.2011 3.2011 2.3796-2.408 2.4646 2.4647 3.2012-3.2012-2.4646-2.4646zm12.9178-.0846-2.3513 2.3513 2.4646 2.4646-3.2011 3.1728-2.4646-2.4646-2.408 2.4079-3.1728-3.2011 2.408-2.3796-2.2947-2.2946 3.1728-3.2012 2.2947 2.2947 2.3512-2.3513z" fill="#ec1c24"/><path d="m50.4726 13.6297c0-1.6338.4763-2.8933 1.4291-3.78008.9528-.8868 2.3352-1.3311 4.147-1.3311.3776 0 .6617.00897.8504.0233v3.46118l-.4494-.0233c-.6615 0-1.1434.1416-1.4417.4246-.3002.2813-.4656.7381-.4961 1.3652h2.3891v3.3913h-2.3873v9.7512h-4.0411v-9.7494h-1.5837v-3.3914h1.5837zm125.7914 1.3633c1.009.98 1.514 2.4365 1.514 4.3642v7.553h-3.838v-6.9654c0-1.0463-.23-1.8274-.689-2.3415-.46-.5142-1.123-.7722-1.993-.7722-.969 0-1.738.2992-2.314.8958-.573.5966-.861 1.4833-.861 2.6603v6.523h-3.838v-18.19642h3.838v6.37602c.509-.507 1.124-.8958 1.846-1.1645.721-.2705 1.509-.4049 2.363-.4049 1.639 0 2.964.4909 3.972 1.4726zm-29.871 0c1.009.98 1.514 2.4365 1.514 4.3642v7.553h-3.838v-6.9654c0-1.0463-.23-1.8274-.689-2.3415-.46-.5142-1.123-.7722-1.993-.7722-.969 0-1.738.2992-2.314.8958-.573.5966-.861 1.4833-.861 2.6603v6.523h-3.838v-13.1927h3.666v1.5443c.509-.5554 1.139-.9854 1.894-1.2881.755-.3028 1.582-.4533 2.487-.4533 1.637 0 2.964.4909 3.972 1.4726zm-74.3437-1.2737v13.1909h-3.6652v-1.5209c-.9509 1.1446-2.3298 1.7163-4.1346 1.7163-1.2458 0-2.3747-.2778-3.3832-.8332-1.0083-.5554-1.7992-1.3491-2.3746-2.3791-.5752-1.0301-.8609-2.2233-.8609-3.5794 0-1.3563.2857-2.5494.8609-3.5795.5735-1.0301 1.3663-1.822 2.3746-2.3791 1.0085-.5554 2.1374-.8331 3.3832-.8331 1.6898 0 3.0092.5321 3.962 1.5945v-1.3974zm-4.7241 9.255c.64-.663.96-1.548.96-2.6604 0-1.1107-.32-1.9976-.96-2.6604-.64-.6629-1.4435-.9925-2.4105-.9925-.9834 0-1.7958.3314-2.4358.9925-.64.6628-.96 1.5497-.96 2.6604 0 1.1124.32 1.9993.96 2.6604.64.6627 1.4506.9924 2.4358.9924.9653 0 1.7705-.3313 2.4105-.9924zm9.7558 3.2605c-1.1236-.5805-2.0008-1.3848-2.6336-2.415-.6309-1.0302-.9474-2.1981-.9474-3.5059s.3165-2.4759.9474-3.506c.631-1.0302 1.5082-1.8346 2.6336-2.415 1.1235-.5804 2.3907-.8707 3.8018-.8707 1.3932 0 2.612.2903 3.6546.8707 1.0408.5804 1.7995 1.4099 2.2758 2.4884l-2.9769 1.5944c-.6885-1.2092-1.6826-1.8147-2.9768-1.8147-1.0013 0-1.8282.3278-2.4843.9799-.6561.6539-.9833 1.5443-.9833 2.673 0 1.1285.3272 2.0191.9833 2.673.6561.6538 1.4848.9798 2.4843.9798 1.3122 0 2.3046-.6054 2.9768-1.8148l2.9769 1.6177c-.4763 1.0463-1.235 1.8632-2.2758 2.4526-1.0426.5876-2.2596.8834-3.6546.8834-1.413 0-2.6802-.2904-3.8018-.8708zm14.0842-4.8424h10.0148c.048-.6378.073-.9818.075-1.0283 0-1.3741-.3-2.5781-.899-3.6171-.6-1.0391-1.4234-1.8364-2.4732-2.3917-1.0498-.5554-2.2218-.8331-3.518-.8331-1.3283 0-2.5309.2903-3.604.8707-1.075.5804-1.9198 1.3902-2.5347 2.4275-.6148 1.0373-.9222 2.2018-.9222 3.4935 0 1.3078.3109 2.4757.9348 3.5059.6237 1.0302 1.5082 1.8345 2.6569 2.415 1.1487.5804 2.4698.8708 3.9618.8708 2.3945 0 4.2154-.7113 5.4616-2.1337l-2.0425-2.2073c-.4602.4426-.9563.765-1.4883.9693-.5339.2043-1.1452.3063-1.8337.3063-1.0011 0-1.8371-.2365-2.5095-.7113-.674-.473-1.1-1.1196-1.2798-1.9365zm-.0485-2.2322c.1311-.8493.4924-1.5193 1.082-2.0102.5915-.4908 1.3213-.7363 2.1913-.7363.8522 0 1.5748.249 2.1645.7471.5896.4998.9509 1.1663 1.082 1.9994zm22.8563-4.7942c1.009.5644 1.8 1.358 2.375 2.3792.573 1.0211.861 2.2107.861 3.5668 0 1.358-.288 2.5458-.861 3.5687-.574 1.0212-1.366 1.8149-2.375 2.3791-1.008.5645-2.128.8458-3.358.8458-1.689 0-3.018-.5304-3.985-1.5945v6.1556h-3.838v-17.9492h3.665v1.521c.951-1.1448 2.337-1.7163 4.158-1.7163 1.23-.0018 2.348.2813 3.358.8438zm-1.6 8.6083c.631-.663.948-1.548.948-2.6604 0-1.1107-.317-1.9976-.948-2.6604-.631-.6629-1.439-.9925-2.423-.9925-.983 0-1.792.3314-2.423.9925-.631.6628-.947 1.5497-.947 2.6604 0 1.1124.316 1.9993.947 2.6604.631.6627 1.44.9924 2.423.9924.984 0 1.792-.3313 2.423-.9924zm19.992 3.9359v-13.1927h-3.842v6.521c0 1.1771-.278 2.0639-.836 2.6606-.559.5983-1.296.8957-2.214.8957-1.789 0-2.682-1.0624-2.682-3.1872v-6.8901h-3.838v7.4545c0 1.9599.509 3.4415 1.526 4.4376 1.017.9978 2.396 1.496 4.134 1.496.82 0 1.584-.1506 2.289-.4534.705-.3009 1.312-.7381 1.821-1.3113v1.5693zm18.138-3.0904c.632 1.0302 1.51 1.8345 2.633 2.415 1.124.5804 2.391.8708 3.802.8708 1.395 0 2.612-.2958 3.655-.8834 1.04-.5894 1.799-1.4063 2.275-2.4526l-2.976-1.6177c-.673 1.2094-1.665 1.8148-2.977 1.8148-1 0-1.828-.326-2.485-.9798-.656-.6539-.983-1.5445-.983-2.673 0-1.1287.327-2.0191.983-2.673.657-.6521 1.483-.9799 2.485-.9799 1.294 0 2.288.6055 2.977 1.8147l2.976-1.5944c-.476-1.0785-1.235-1.908-2.275-2.4884-1.043-.5804-2.262-.8707-3.655-.8707-1.411 0-2.678.2903-3.802.8707-1.125.5804-2.002 1.3848-2.633 2.415-.631 1.0301-.948 2.1982-.948 3.506s.317 2.4757.948 3.5059z" fill="#111221"/></g></svg>