<svg fill="none" height="65" viewBox="0 0 195 65" width="195" xmlns="http://www.w3.org/2000/svg" xmlns:xlink="http://www.w3.org/1999/xlink"><linearGradient id="a"><stop offset="0" stop-color="#e782fc"/><stop offset="1" stop-color="#80d7ff"/></linearGradient><linearGradient id="b" gradientUnits="userSpaceOnUse" x1="67.4312" x2="-2.39579" xlink:href="#a" y1="28.0925" y2="28.0574"/><linearGradient id="c" gradientUnits="userSpaceOnUse" x1="67.4309" x2="-2.39556" xlink:href="#a" y1="28.0925" y2="28.0574"/><linearGradient id="d" gradientUnits="userSpaceOnUse" x1="67.4311" x2="-2.39565" xlink:href="#a" y1="28.0925" y2="28.0574"/><linearGradient id="e" gradientUnits="userSpaceOnUse" x1="67.4311" x2="-2.39563" xlink:href="#a" y1="28.0925" y2="28.0574"/><linearGradient id="f" gradientUnits="userSpaceOnUse" x1="67.431" x2="-2.39564" xlink:href="#a" y1="28.0925" y2="28.0574"/><linearGradient id="g" gradientUnits="userSpaceOnUse" x1="32.5" x2="32.5" y1="28.1543" y2="59.3545"><stop offset="0" stop-color="#80d7ff"/><stop offset="1" stop-color="#e980fc"/></linearGradient><path d="m33.7604 9.06827c0-.70044-.5642-1.26828-1.2604-1.26828-.6961 0-1.2604.56784-1.2604 1.26828v7.60973c0 .7004.5643 1.2683 1.2604 1.2683.6962 0 1.2604-.5679 1.2604-1.2683z" fill="url(#b)"/><path d="m14.1018 30.5656c.3481-.6066.1415-1.3822-.4614-1.7325l-6.54947-3.8048c-.60288-.3502-1.37378-.1424-1.72185.4642-.34804.6066-.1415 1.3823.46137 1.7325l6.54955 3.8049c.6029.3502 1.3737.1423 1.7218-.4643z" fill="url(#c)"/><path d="m49.2288 13.6698c.348-.6066.1413-1.3822-.4615-1.7325-.6029-.3502-1.3735-.1423-1.7216.4643l-3.7814 6.5902c-.348.6066-.1417 1.3822.4612 1.7325.6029.3502 1.3738.1424 1.7219-.4643z" fill="url(#d)"/><path d="m21.2745 20.7243c.6028-.3503.8094-1.1259.4613-1.7325l-3.7814-6.5902c-.348-.6066-1.1189-.8145-1.7218-.4643-.6029.3503-.8094 1.1259-.4613 1.7325l3.7813 6.5902c.3481.6067 1.119.8145 1.7219.4643z" fill="url(#e)"/><path d="m59.1695 27.225c.6029-.3502.8096-1.1259.4615-1.7325s-1.119-.8144-1.7218-.4642l-6.5498 3.8048c-.6028.3503-.8092 1.1259-.4611 1.7325.348.6066 1.1189.8145 1.7218.4643z" fill="url(#f)"/><path d="m44.2 45.5v10.4c0 .78-.52 1.3-1.3 1.3h-20.8c-.78 0-1.3-.52-1.3-1.3v-10.4h10.4v11.7h2.6v-11.7zm-13-9.1h-11.7c-.78 0-1.3.52-1.3 1.3v3.9c0 .78.52 1.3 1.3 1.3h11.7zm14.3 0h-11.7v6.5h11.7c.78 0 1.3-.52 1.3-1.3v-3.9c0-.78-.52-1.3-1.3-1.3zm-3.77-1.43.13-.52c.52-1.3.39-2.86-.39-4.03s-2.21-1.82-3.64-1.82c-1.82 0-3.38 1.04-4.03 2.73l-2.6 6.37h6.5c1.69 0 3.38-1.04 4.03-2.73zm-5.46-2.73c.26-.65.91-1.04 1.56-1.04.52 0 1.04.26 1.43.78.26.52.39 1.04.13 1.56l-.13.52c-.26.65-.91 1.04-1.56 1.04h-2.6zm-5.07-.91c-.65-1.69-2.34-2.73-4.03-2.73-1.43 0-2.86.65-3.64 1.95-.78 1.17-.91 2.6-.39 4.03l.13.52c.65 1.56 2.34 2.6 4.03 2.6h6.37zm-2.47.91 1.17 2.86h-2.6c-.65 0-1.3-.39-1.56-1.04l-.26-.52c-.13-.52-.13-1.17.26-1.56.26-.52.78-.78 1.43-.78s1.3.39 1.56 1.04z" fill="url(#g)"/><g fill="#a372df"><path d="m92.4625 25.8375v3.3442c-1.4333-2.2863-3.8561-3.7537-6.8932-3.7537-4.8117 0-8.8043 3.8902-8.8043 8.9407s3.9926 8.9408 8.8043 8.9408c3.0371 0 5.4599-1.4674 6.8932-3.7538v2.6618c0 3.4807-2.3546 5.733-6.3131 5.733-3.6855 0-5.2553-1.365-6.1084-3.1054l-1.9792 1.1261c1.3308 2.6618 4.1632 4.1633 8.0876 4.1633 4.4021 0 8.5653-2.73 8.5653-7.917v-16.38zm-6.7226 15.288c-3.7879 0-6.7226-2.9689-6.7226-6.7568 0-3.7878 2.9347-6.7567 6.7226-6.7567 3.7878 0 6.7226 2.9689 6.7226 6.7567 0 3.7879-2.9348 6.7568-6.7226 6.7568z"/><path d="m106.752 43.3095c4.982 0 8.975-3.8903 8.975-8.9408s-3.993-8.9407-8.975-8.9407-8.9748 3.8902-8.9748 8.9407 3.9928 8.9408 8.9748 8.9408zm0-2.184c-3.788 0-6.723-2.9689-6.723-6.7568 0-3.7878 2.935-6.7567 6.723-6.7567s6.723 2.9689 6.723 6.7567c0 3.7879-2.935 6.7568-6.723 6.7568z"/><path d="m126.765 43.3095c4.982 0 8.974-3.8903 8.974-8.9408s-3.992-8.9407-8.974-8.9407c-4.983 0-8.975 3.8902-8.975 8.9407s3.992 8.9408 8.975 8.9408zm0-2.184c-3.788 0-6.723-2.9689-6.723-6.7568 0-3.7878 2.935-6.7567 6.723-6.7567 3.787 0 6.722 2.9689 6.722 6.7567 0 3.7879-2.935 6.7568-6.722 6.7568z"/><path d="m153.499 19.0125v10.1693c-1.433-2.2864-3.856-3.7538-6.893-3.7538-4.811 0-8.804 3.8903-8.804 8.9408s3.993 8.9407 8.804 8.9407c3.037 0 5.46-1.4674 6.893-3.7537v3.3442h2.253v-23.8875zm-6.722 22.113c-3.788 0-6.723-2.9689-6.723-6.7567 0-3.7879 2.935-6.7568 6.723-6.7568s6.722 2.9689 6.722 6.7568c0 3.7878-2.934 6.7567-6.722 6.7567z"/><path d="m172.123 25.8375-5.528 14.2984-6.416-14.2984h-2.389l7.644 17.1649-.443 1.0579c-.922 2.2181-2.457 3.7879-4.675 3.549v2.1157c3.071.2389 5.596-1.9792 6.893-5.2552l7.303-18.6323z"/></g></svg>