<svg fill="none" height="40" viewBox="0 0 190 40" width="190" xmlns="http://www.w3.org/2000/svg" xmlns:xlink="http://www.w3.org/1999/xlink"><clipPath id="a"><path d="m0 0h189.286v40h-189.286z"/></clipPath><g clip-path="url(#a)"><path d="m166.892 31.0263h2.354v-14.199h-2.354zm2.354-18.4741h-2.354v2.3658h2.354zm-112.0939-.1249c-2.56 0-5.3268.9961-5.3268 3.5288 0 2.2 2.519 2.8644 5.5337 3.3629 4.0478.6634 8.0536 1.4527 8.0536 6.0605-.041 4.6088-4.3775 6.0615-8.2605 6.0615-3.5931 0-7.0214-1.3288-8.5902-4.7327l2.1063-1.2039c1.322 2.4078 4.0478 3.5707 6.5259 3.5707 2.478 0 5.7405-.7893 5.7405-3.7785.0419-2.5317-2.8078-3.2791-5.8644-3.7366-3.9239-.6225-7.7239-1.5356-7.7239-5.6459-.1239-4.2341 4.2127-5.6878 7.7239-5.6878 3.0146 0 5.9053.6234 7.7229 3.6956l-1.9415 1.2039c-1.0731-1.8273-3.4273-2.6575-5.6995-2.6985zm12.5561-1.7854v8.3864c1.1981-1.9103 3.1386-2.5327 4.9561-2.5747 4.0478 0 6.0293 2.6986 6.0293 6.643v7.9297h-2.3532v-7.8878c0-2.8234-1.4458-4.4429-4.0478-4.4429-2.6019 0-4.5434 2.0761-4.5434 4.6917v7.68h-2.3541v-20.4254zm25.6488 20.4673-.0419-2.6156c-1.1152 1.9932-3.3035 2.9064-5.2859 2.9064-4.1307 0-7.3522-2.8654-7.3522-7.5561 0-4.6917 3.3044-7.4732 7.3932-7.4312 2.1473 0 4.2536.9961 5.2868 2.8644l.041-2.6147h2.3132v14.4049h-2.2722zm-5.2039-12.4556c-2.8497 0-5.1219 2.0761-5.1219 5.2313 0 3.1551 2.2722 5.2721 5.1219 5.2721 6.8976.041 6.8976-10.5034 0-10.5034zm9.7883-1.9922h2.2716l.124 2.7815c1.115-1.9512 3.263-3.0302 5.534-3.0302 4.131.0829 7.146 2.9892 7.146 7.4312 0 4.5658-2.974 7.5141-7.311 7.5141-2.065 0-4.295-.8722-5.41-2.9063v9.3824h-2.3136zm12.6376 7.2654c0-3.239-2.147-5.1483-5.039-5.1483-2.973 0-4.997 2.201-4.997 5.1483s2.148 5.1483 4.997 5.1903c2.851 0 5.039-1.9513 5.039-5.1903zm17.678 4.7746c-1.445 1.7435-3.923 2.5737-6.196 2.5737-4.46 0-7.558-2.9473-7.558-7.5561 0-4.359 3.098-7.4732 7.434-7.4732 4.379 0 7.724 2.6995 7.187 8.4703h-12.184c.248 2.6566 2.437 4.317 5.204 4.317 1.611 0 3.593-.6634 4.585-1.8263zm-1.404-5.8956c-.124-2.7805-2.066-4.317-4.875-4.317-2.478 0-4.666 1.5356-5.08 4.2761zm12.225-10.3785c-2.561 0-5.328.9961-5.328 3.5288 0 2.2 2.519 2.8644 5.534 3.3629 4.048.6634 8.054 1.4527 8.054 6.0605-.041 4.6088-4.378 6.0615-8.26 6.0615-3.593 0-7.021-1.3279-8.591-4.7318l2.106-1.2048c1.322 2.4078 4.048 3.5707 6.526 3.5707s5.741-.7893 5.741-3.7785c.041-2.5317-2.808-3.2791-5.865-3.7366-3.924-.6225-7.723-1.5356-7.723-5.6459-.042-4.2761 4.254-5.7288 7.764-5.7288 3.016 0 5.906.6225 7.724 3.6947l-1.942 1.2039c-1.156-1.7854-3.469-2.6147-5.74-2.6566zm12.473-1.7854v8.3864c1.198-1.9103 3.139-2.5327 4.956-2.5747 4.048 0 6.03 2.6986 6.03 6.643v7.9297h-2.354v-7.8878c0-2.8234-1.446-4.4429-4.047-4.4429-2.602 0-4.544 2.0761-4.544 4.6917v7.639h-2.354v-20.4254zm23.088 5.0234c0-2.159.991-3.1141 2.519-3.1141h.083l.536-2.0751c-.247-.042-.454-.042-.702-.042-3.015 0-4.79 1.9512-4.79 5.2312v1.121h-2.809v2.1171h2.809v12.1229h2.354v-12.1229h2.85v-2.1171h-2.85v-1.1219zm12.142 13.3688c-.164.041-.371.041-.578.041-1.735 0-2.271-1.08-2.271-2.7815v-7.3902h3.056v-2.0761h-3.015v-4.4l-2.355.2488v4.1102h-2.89v2.0761h2.89v7.4312c0 3.1961 1.446 4.9815 4.544 4.9395.375-.0001.749-.0417 1.115-.1239l-.496-2.0761zm-152.7333-28.729738-12.2673 4.899518h-11.4819l-11.729774-4.982444 2.684874 16.191264-2.560972 8.76 6.691702 4.0263c3.15917 1.899 6.00197 4.2803 8.42537 7.0576l2.602 2.9892 2.7258-3.1551c2.3394-2.6881 5.0678-5.0111 8.0946-6.8917l6.5678-4.0263-2.3541-8.761 2.6019-16.106362zm-8.1365 27.317038c-2.2303 1.4117-4.2956 2.9893-6.1542 4.8156l-2.2712-2.4907zm-10.7805 2.3249-2.2303 2.4907c-1.8871-1.8096-3.9642-3.4102-6.19509-4.7736zm-2.1883-2.7395-11.8127-3.1971 1.61073-5.5629zm-4.4605-20.59219-5.61756 7.39029-1.73366-10.46346 7.35222 3.07317zm19.1639 10.87809-11.3581 9.9619-11.56483-9.9619zm-23.33659-2.0352 6.27899-8.21948h10.8625l6.9795 8.21948h-24.11904zm25.48489 2.8644 1.5288 5.6878-11.7298 3.2391zm1.6517-14.81949-1.7356 10.37849-6.0712-7.26532z" fill="#141731"/></g></svg>