<svg fill="none" height="40" viewBox="0 0 221 40" width="221" xmlns="http://www.w3.org/2000/svg" xmlns:xlink="http://www.w3.org/1999/xlink"><clipPath id="a"><path d="m0 0h220.833v40h-220.833z"/></clipPath><g clip-path="url(#a)" fill="#000"><path d="m42.3625 12.7792c-1.1061-3.28728-3.0974-6.20582-5.7548-8.4347-2.6575-2.22885-5.8781-3.681662-9.3077-4.198667l-.1583-.025001-.3334-.0416657-.1875-.0208334h-.3083l-.3125-.0250004h-.3333c-.3542 0-.7209-.0333325-1.0834-.0333325h-24.5833l8.75 8.75-.16667.27083c-.07916.125-.15416.25417-.225.38334-.07083.12916-.12916.225-.1875.32916l-.06666.12084-.02084.04166-.06666.12087-.07917.1583-.075.1417c-.46129.9181-.84592 1.8727-1.15 2.8541l-.2625.725 3.5125 3.45-4.08333-.375v1.6917c.00354 1.859.28441 3.7072.83333 5.4833l.12917.4167c1.06879 3.1922 2.97316 6.0398 5.51503 8.2468 2.5419 2.207 5.6286 3.6929 8.9391 4.3032l.3125.0542.2917.0458h.1667l.3125.0417h.2666l.2459.025h2.8208c2.6857-.1643 5.3051-.902 7.6819-2.1633 2.3768-1.2614 4.4558-3.0171 6.0973-5.1492l.1541-.2c.0959-.1292.1917-.2584.2917-.4167l.0583-.0833.0792-.1167.15-.2208c.0458-.0709.0917-.1459.1458-.225l.1459-.2292c.1083-.175.2083-.3417.3041-.5042l.075-.1291c.0875-.1542.1709-.3042.2417-.4417v-.025c.0204-.032.0385-.0654.0542-.1.0333-.0625.0666-.125.0958-.1875.4887-.9522.8942-1.9447 1.2125-2.9667l.2417-.7875-3.5084-3.4458 4.075.375.025-1.4625v-.2292c-.0187-1.8698-.3162-3.7264-.8833-5.5083zm-5.8333 12.0041c-1.1381 2.1919-2.8555 4.0295-4.9655 5.313s-4.5315 1.9635-7.0012 1.9662c-.4167 0-.8083 0-1.2125-.0542-2.5979-.2539-5.0668-1.2547-7.1082-2.8813-2.0415-1.6267-3.5683-3.8097-4.396-6.2853l12.5 1.1541-11.6916-11.4666c.6708-1.3035 1.5521-2.4875 2.6083-3.5042l.6792-.65833-3.1-3.1125h11.7333c.4167 0 .8333 0 1.25.05416 2.5973.25421 5.0655 1.25513 7.1063 2.88184 2.0407 1.62671 3.5668 3.80953 4.3937 6.28483l-12.5-1.1542zm139.7328-10.725c-1.035 1.0965-1.851 2.3807-2.404 3.7834-1.143 2.9487-1.143 6.2179 0 9.1666.544 1.386 1.329 2.6653 2.317 3.7792.965 1.0795 2.14 1.9502 3.454 2.5583 1.336.6321 2.793.9622 4.271.9667 1.865.044 3.7-.479 5.262-1.5l.805-.6125.07-.0625c1.392-1.0708 1.717-1.3375 1.717-1.3375l-1.125 2.8708v.6334h5.717v-11.8875c.009-1.5687-.282-3.1245-.859-4.5834-.552-1.404-1.369-2.6895-2.404-3.7875-1.043-1.0941-2.297-1.9646-3.687-2.5583-3.022-1.2336-6.407-1.2336-9.429 0-1.39.5937-2.645 1.4642-3.688 2.5583zm3.48 10.7084c-.289-.7696-.43-1.5866-.417-2.4084-.01-.8012.131-1.5972.417-2.3458.271-.6883.667-1.321 1.166-1.8667.481-.5259 1.062-.9508 1.709-1.25.654-.2951 1.365-.4457 2.083-.4416.72-.0056 1.433.1526 2.083.4625.646.3037 1.227.728 1.713 1.25.501.5465.896 1.1807 1.166 1.8708.284.7333.425 1.5138.417 2.3.012.8068-.129 1.6084-.417 2.3625-.267.7053-.662 1.3551-1.166 1.9167-.481.5335-1.064.9668-1.713 1.275-.645.3017-1.348.4581-2.06.4581s-1.416-.1564-2.061-.4581c-.646-.3039-1.229-.7282-1.716-1.25-.503-.5502-.898-1.1907-1.163-1.8875zm-87.5462-10.675c-1.0412-1.0932-2.2946-1.9624-3.6833-2.5542-3.0225-1.2387-6.4108-1.2387-9.4333 0-1.3909.5908-2.6455 1.46-3.6875 2.5542-1.0342 1.0986-1.85 2.384-2.4042 3.7875-.5763 1.4589-.8675 3.0147-.8583 4.5833v17.2375h6.2916v-4.5l-1.7166-4.375s.325.2667 1.7166 1.3333l.0709.0625.8041.6125c1.5634 1.0216 3.3996 1.5446 5.2667 1.5 1.4717.0062 2.9267-.311 4.2625-.9291 1.3137-.6082 2.4896-1.4788 3.4542-2.5584.99-1.1109 1.7745-2.3892 2.3166-3.775 1.1421-2.9488 1.1421-6.2178 0-9.1666-.5541-1.4022-1.37-2.6862-2.4041-3.7834zm-3.4625 10.75c-.2675.6978-.6629 1.3395-1.1666 1.8916-.4888.5209-1.0709.9449-1.7167 1.25-.6442.3046-1.3479.4625-2.0604.4625s-1.4163-.1579-2.0604-.4625c-.6492-.3082-1.2313-.7415-1.7125-1.275-.5025-.5607-.898-1.209-1.1667-1.9125-.2867-.7556-.4279-1.5585-.4167-2.3666-.0083-.7862.1334-1.5667.4167-2.3.2704-.6901.6658-1.3243 1.1667-1.8709.4875-.5221 1.07-.9463 1.7166-1.25.6438-.3079 1.3488-.466 2.0625-.4625.7179-.0041 1.4288.1466 2.0834.4417.6462.3003 1.2266.725 1.7083 1.25.5008.5465.8962 1.1808 1.1667 1.8708.2862.7471.4275 1.5418.4166 2.3417.0117.8217-.13 1.6383-.4166 2.4083zm79.6627 5.975c1.035-1.0965 1.851-2.3807 2.404-3.7834 1.143-2.9487 1.143-6.2179 0-9.1666-.544-1.386-1.328-2.6653-2.317-3.7792-.966-1.0793-2.143-1.9499-3.458-2.5583-1.335-.625-2.792-.9479-4.267-.9459-1.865-.0445-3.701.4786-5.262 1.5l-.804.6167-.071.0583v-8.5833h-6.292v18.2833c-.009 1.5686.283 3.1243.858 4.5834.554 1.4017 1.368 2.6856 2.4 3.7833 1.043 1.0946 2.298 1.9651 3.688 2.5583 3.024 1.2321 6.41 1.2321 9.433 0 1.391-.5932 2.645-1.4637 3.688-2.5583zm-3.471-10.7209c.289.771.43 1.5894.417 2.4125.012.8001-.13 1.595-.417 2.3417-.269.6908-.665 1.3253-1.167 1.8708-.478.5281-1.06.9534-1.708 1.25-.654.2974-1.365.4482-2.083.4417-.72.0055-1.432-.1511-2.084-.4583-.645-.304-1.226-.7283-1.712-1.25-.5-.5457-.895-1.1784-1.167-1.8667-.283-.7334-.424-1.5139-.417-2.3-.009-.8079.133-1.6105.417-2.3667.269-.7042.666-1.3526 1.171-1.9125.479-.5346 1.06-.9681 1.708-1.275.645-.3046 1.349-.4625 2.063-.4625.713 0 1.417.1579 2.062.4625.646.3038 1.227.728 1.713 1.25.504.5507.899 1.1909 1.166 1.8875zm-37.958-7.925h-8.23l-7.2 7.2v-15.1958h-6.25v30.125h6.25v-7.0875l2.113-2.0792 5.717 9.1667h7.641l-8.941-13.4833zm-30.0295.2667h6.2915v21.8625h-6.2915z"/><path d="m145.558 16.0416c-.654-1.1306-1.5-2.1388-2.5-2.9791-.992-.8104-2.121-1.4382-3.333-1.8542-1.255-.4317-2.573-.65-3.9-.6458-1.567-.0088-3.118.315-4.55.95-1.381.6139-2.636 1.4801-3.7 2.5541-1.07 1.0906-1.92 2.3782-2.5 3.7917-.605 1.4752-.913 3.0555-.904 4.65-.026 2.3166.632 4.5893 1.892 6.5335 1.26 1.9441 3.066 3.4732 5.191 4.3956 1.434.6223 2.983.9387 4.546.9292 2.833 0 5.225-.725 7.117-2.1458 1.878-1.3995 3.239-3.3821 3.87-5.6375l.117-.4167h-6.667l-.087.1625c-.418.7909-1.075 1.4285-1.879 1.8208-.786.3864-1.649.5888-2.525.5917-.869.0092-1.726-.1924-2.5-.5875-.644-.3334-1.22-.7859-1.696-1.3333l15.462-6.5c-.254-1.5041-.752-2.9565-1.475-4.3zm-15.441 5.6833c.058-.6765.221-1.34.483-1.9666.291-.7016.706-1.3451 1.225-1.9.508-.5357 1.122-.9603 1.802-1.2471.681-.2869 1.414-.4297 2.152-.4196.812-.0112 1.616.1537 2.358.4834.559.2576 1.066.6148 1.496 1.0541zm-30.038-11.2624c.623.0008 1.231-.1831 1.749-.52846.518-.34538.922-.83663 1.161-1.41163.238-.575.301-1.20787.18-1.8185-.122-.61062-.421-1.17154-.861-1.61171-.441-.44021-1.001-.73991-1.612-.86116s-1.2435-.05859-1.8185.18c-.575.23862-1.0663.6425-1.4117 1.16045-.3454.51796-.5292 1.12675-.5283 1.7493 0 .8332.3308 1.63233.92 2.22149.5892.58922 1.3883.92022 2.2215.92022zm-40.929 23.8041c-6.7375-.3458-10.4167-3.6708-10.8333-4.05l4.4375-4.6542-.0334-.0333c.0959.0875 2.3917 2.0833 6.7625 2.325 2.0833.1083 3.3334-.5708 4.0334-1.1583.3683-.2923.6733-.6566.8962-1.0706.2225-.4141.3588-.8693.3996-1.3377.0221-.3538-.0367-.7079-.1717-1.0356-.135-.3278-.3425-.6205-.6075-.8561-.8333-.7917-2.3291-1.2792-4.1958-1.375-3.2125-.1667-5.8958-1.1792-7.7542-2.9167-.8975-.8278-1.6004-1.8441-2.0587-2.9759-.4584-1.1317-.66-2.3509-.5913-3.5699.25-4.75418 4.5834-9.46668 11.3667-9.11251 6.275.325 9.725 3.43333 10.0958 3.7875l-4.4333 4.64171.0375.0333c-.0833-.075-2.1334-1.86252-6.0334-2.06251-3.2291-.16667-4.5375 1.76251-4.5833 3.01671-.0187.285.0275.5705.1359.8348.1083.2643.2758.5004.4891.6902.725.6791 2.0333 1.1 3.6792 1.1875 3.4375.1791 6.2958 1.25 8.275 3.1166.9462.8751 1.6879 1.9486 2.1712 3.1436.4834 1.1949.6967 2.4819.6246 3.7689-.2625 5.0417-4.8541 10.0375-12.0833 9.6625zm139.283-28.19581h6.292v28.25411h-6.292zm8.2 0h6.292v28.25411h-6.292zm8.075.475v-.475h2.425v.475h-.929v2.37083h-.566v-2.37083zm3.721-.475.729 2.03749.729-2.03749h.809v2.84583h-.521v-2.29583l-.787 2.29583h-.455l-.795-2.29583v2.29583h-.521v-2.84583z"/></g></svg>