<svg xmlns="http://www.w3.org/2000/svg" xmlns:xlink="http://www.w3.org/1999/xlink" width="500" zoomAndPan="magnify" viewBox="0 0 375 374.999991" height="500" preserveAspectRatio="xMidYMid meet" version="1.0"><path fill="#231f20" d="M 378.707031 187.351562 C 378.707031 293.035156 293.03125 378.710938 187.347656 378.710938 C 81.660156 378.710938 -4.011719 293.035156 -4.011719 187.351562 C -4.011719 81.664062 81.660156 -4.007812 187.347656 -4.007812 C 293.03125 -4.007812 378.707031 81.664062 378.707031 187.351562 Z M 378.707031 187.351562 " fill-opacity="1" fill-rule="nonzero"/><path fill="#ffffff" d="M 187.347656 382.347656 C 161.023438 382.347656 135.488281 377.191406 111.445312 367.023438 C 88.222656 357.203125 67.371094 343.140625 49.464844 325.234375 C 31.554688 307.328125 17.496094 286.476562 7.675781 263.253906 C -2.496094 239.210938 -7.648438 213.675781 -7.648438 187.351562 C -7.648438 161.027344 -2.496094 135.492188 7.675781 111.449219 C 17.496094 88.226562 31.554688 67.375 49.464844 49.46875 C 67.371094 31.558594 88.222656 17.5 111.445312 7.679688 C 135.488281 -2.492188 161.023438 -7.644531 187.347656 -7.644531 C 213.671875 -7.644531 239.207031 -2.488281 263.25 7.679688 C 286.472656 17.5 307.324219 31.558594 325.230469 49.46875 C 343.136719 67.375 357.199219 88.226562 367.019531 111.449219 C 377.1875 135.492188 382.34375 161.027344 382.34375 187.351562 C 382.34375 213.675781 377.1875 239.210938 367.019531 263.253906 C 357.199219 286.476562 343.136719 307.328125 325.230469 325.234375 C 307.324219 343.140625 286.46875 357.203125 263.25 367.023438 C 239.207031 377.191406 213.671875 382.347656 187.347656 382.347656 Z M 187.347656 -0.371094 C 83.835938 -0.371094 -0.375 83.839844 -0.375 187.351562 C -0.375 290.863281 83.835938 375.074219 187.347656 375.074219 C 290.859375 375.074219 375.070312 290.863281 375.070312 187.351562 C 375.070312 83.839844 290.859375 -0.371094 187.347656 -0.371094 Z M 187.347656 -0.371094 " fill-opacity="1" fill-rule="nonzero"/><path fill="#231f20" d="M 279.9375 195.660156 C 279.9375 248.039062 238.050781 290.5 186.378906 290.5 C 134.707031 290.5 92.820312 248.039062 92.820312 195.660156 C 92.820312 143.28125 134.707031 100.816406 186.378906 100.816406 C 206.867188 100.816406 225.820312 107.496094 241.230469 118.820312 " fill-opacity="1" fill-rule="nonzero"/><path fill="#ffffff" d="M 186.378906 308.6875 C 171.269531 308.6875 156.605469 305.6875 142.792969 299.761719 C 129.476562 294.054688 117.527344 285.890625 107.273438 275.496094 C 97.035156 265.117188 89 253.035156 83.386719 239.578125 C 77.574219 225.65625 74.628906 210.878906 74.628906 195.660156 C 74.628906 180.4375 77.574219 165.664062 83.386719 151.738281 C 89 138.285156 97.035156 126.199219 107.273438 115.824219 C 117.527344 105.429688 129.476562 97.261719 142.792969 91.554688 C 156.605469 85.632812 171.269531 82.628906 186.378906 82.628906 C 210.136719 82.628906 232.828125 90.074219 252 104.164062 L 230.460938 133.476562 C 217.578125 124.007812 202.335938 119.003906 186.378906 119.003906 C 144.816406 119.003906 111.007812 153.390625 111.007812 195.660156 C 111.007812 237.925781 144.816406 272.3125 186.378906 272.3125 C 227.9375 272.3125 261.75 237.925781 261.75 195.660156 L 298.125 195.660156 C 298.125 210.878906 295.179688 225.65625 289.371094 239.578125 C 283.757812 253.035156 275.71875 265.117188 265.484375 275.496094 C 255.230469 285.890625 243.277344 294.054688 229.964844 299.761719 C 216.152344 305.6875 201.488281 308.6875 186.378906 308.6875 Z M 186.378906 308.6875 " fill-opacity="1" fill-rule="nonzero"/><path fill="#ffffff" d="M 181.277344 176.683594 L 297.777344 176.683594 L 297.777344 213.058594 L 181.277344 213.058594 Z M 181.277344 176.683594 " fill-opacity="1" fill-rule="nonzero"/></svg>