<svg xmlns="http://www.w3.org/2000/svg" xmlns:xlink="http://www.w3.org/1999/xlink" width="100" zoomAndPan="magnify" viewBox="0 0 75 74.999997" height="100" preserveAspectRatio="xMidYMid meet" version="1.0"><defs><clipPath id="a4ccf2a238"><path d="M 0 0 L 74.386719 0 L 74.386719 75 L 0 75 Z M 0 0 " clip-rule="nonzero"/></clipPath><clipPath id="d670e23be0"><path d="M 36.886719 0 C 16.175781 0 -0.613281 16.789062 -0.613281 37.5 C -0.613281 58.210938 16.175781 75 36.886719 75 C 57.597656 75 74.386719 58.210938 74.386719 37.5 C 74.386719 16.789062 57.597656 0 36.886719 0 " clip-rule="nonzero"/></clipPath><clipPath id="e725ea1313"><path d="M 15.710938 15.765625 L 59.210938 15.765625 L 59.210938 59.265625 L 15.710938 59.265625 Z M 15.710938 15.765625 " clip-rule="nonzero"/></clipPath></defs><g clip-path="url(#a4ccf2a238)"><g clip-path="url(#d670e23be0)"><path fill="#000000" d="M -0.613281 0 L 74.386719 0 L 74.386719 75 L -0.613281 75 Z M -0.613281 0 " fill-opacity="1" fill-rule="nonzero"/></g></g><g clip-path="url(#e725ea1313)"><path fill="#ffffff" d="M 58.296875 44.855469 C 57.839844 44.855469 57.46875 44.484375 57.46875 44.027344 L 57.46875 18.671875 L 43.472656 32.703125 C 43.148438 33.027344 42.628906 33.027344 42.304688 32.703125 C 41.984375 32.378906 41.984375 31.855469 42.304688 31.535156 L 57.710938 16.089844 C 57.949219 15.855469 58.300781 15.785156 58.609375 15.910156 C 58.917969 16.039062 59.121094 16.339844 59.121094 16.675781 L 59.121094 44.027344 C 59.121094 44.484375 58.75 44.855469 58.296875 44.855469 Z M 16.632812 59.265625 C 16.175781 59.265625 15.808594 58.894531 15.808594 58.4375 L 15.808594 29.617188 C 15.808594 29.285156 16.007812 28.984375 16.316406 28.855469 C 16.625 28.726562 16.980469 28.796875 17.214844 29.035156 L 31.589844 43.445312 C 31.914062 43.765625 31.914062 44.289062 31.589844 44.613281 C 31.269531 44.9375 30.746094 44.9375 30.425781 44.613281 L 17.457031 31.613281 L 17.457031 58.4375 C 17.457031 58.894531 17.085938 59.265625 16.632812 59.265625 Z M 58.296875 59.265625 C 58.085938 59.265625 57.875 59.183594 57.710938 59.023438 L 16.050781 17.257812 C 15.726562 16.9375 15.726562 16.414062 16.050781 16.089844 C 16.371094 15.769531 16.894531 15.769531 17.214844 16.089844 L 58.878906 57.855469 C 59.199219 58.175781 59.199219 58.699219 58.878906 59.023438 C 58.71875 59.183594 58.507812 59.265625 58.296875 59.265625 " fill-opacity="1" fill-rule="nonzero"/></g></svg>