<svg xmlns="http://www.w3.org/2000/svg" xmlns:xlink="http://www.w3.org/1999/xlink" width="500" zoomAndPan="magnify" viewBox="0 0 375 374.999991" height="500" preserveAspectRatio="xMidYMid meet" version="1.0"><defs><clipPath id="3a6b28945b"><path d="M 55.511719 81.910156 L 319.511719 81.910156 L 319.511719 293.410156 L 55.511719 293.410156 Z M 55.511719 81.910156 " clip-rule="nonzero"/></clipPath></defs><rect x="-37.5" width="450" fill="#ffffff" y="-37.499999" height="449.999989" fill-opacity="1"/><rect x="-37.5" width="450" fill="#ffffff" y="-37.499999" height="449.999989" fill-opacity="1"/><rect x="-37.5" width="450" fill="#ffffff" y="-37.499999" height="449.999989" fill-opacity="1"/><g clip-path="url(#3a6b28945b)"><path fill="#ff0000" d="M 313.988281 110.804688 C 310.953125 99.4375 302.003906 90.472656 290.652344 87.433594 C 270.058594 81.910156 187.511719 81.910156 187.511719 81.910156 C 187.511719 81.910156 104.960938 81.910156 84.371094 87.433594 C 73.019531 90.472656 64.070312 99.4375 61.035156 110.804688 C 55.515625 131.425781 55.515625 187.660156 55.515625 187.660156 C 55.515625 187.660156 55.515625 243.890625 61.035156 264.511719 C 64.070312 275.878906 73.019531 284.84375 84.371094 287.882812 C 104.960938 293.410156 187.511719 293.410156 187.511719 293.410156 C 187.511719 293.410156 270.058594 293.410156 290.652344 287.882812 C 302.015625 284.84375 310.953125 275.878906 313.988281 264.511719 C 319.503906 243.890625 319.503906 187.660156 319.503906 187.660156 C 319.503906 187.660156 319.503906 131.425781 313.988281 110.804688 Z M 161.113281 222 L 161.113281 153.316406 C 161.113281 148.226562 166.617188 145.054688 171.011719 147.59375 L 230.410156 181.933594 C 234.804688 184.472656 234.804688 190.84375 230.410156 193.382812 L 171.011719 227.722656 C 166.617188 230.277344 161.113281 227.089844 161.113281 222 Z M 161.113281 222 " fill-opacity="1" fill-rule="nonzero"/></g></svg>