<svg xmlns="http://www.w3.org/2000/svg" xmlns:xlink="http://www.w3.org/1999/xlink" width="500" zoomAndPan="magnify" viewBox="0 0 375 374.999991" height="500" preserveAspectRatio="xMidYMid meet" version="1.0"><defs><clipPath id="5fa0a87d8d"><path d="M 187.5 0 C 83.945312 0 0 83.945312 0 187.5 C 0 291.054688 83.945312 375 187.5 375 C 291.054688 375 375 291.054688 375 187.5 C 375 83.945312 291.054688 0 187.5 0 " clip-rule="nonzero"/></clipPath><clipPath id="600f733c78"><path d="M 56.777344 56.777344 L 318.527344 56.777344 L 318.527344 318.527344 L 56.777344 318.527344 Z M 56.777344 56.777344 " clip-rule="nonzero"/></clipPath></defs><g clip-path="url(#5fa0a87d8d)"><rect x="-37.5" width="450" fill="#ff0000" y="-37.499999" height="449.999989" fill-opacity="1"/></g><path fill="#ffffff" d="M 236.710938 186.328125 L 159.074219 141.503906 C 157.101562 140.367188 154.675781 140.367188 152.707031 141.503906 C 150.738281 142.640625 149.523438 144.742188 149.523438 147.015625 L 149.523438 236.667969 C 149.523438 238.941406 150.738281 241.046875 152.707031 242.183594 C 153.691406 242.757812 154.792969 243.039062 155.890625 243.039062 C 156.988281 243.039062 158.089844 242.753906 159.074219 242.183594 L 236.710938 197.359375 C 238.6875 196.222656 239.894531 194.121094 239.894531 191.84375 C 239.894531 189.570312 238.683594 187.464844 236.710938 186.328125 Z M 236.710938 186.328125 " fill-opacity="1" fill-rule="nonzero"/><g clip-path="url(#600f733c78)"><path fill="#ffffff" d="M 187.539062 318.382812 C 115.394531 318.382812 56.699219 259.6875 56.699219 187.542969 C 56.699219 115.398438 115.394531 56.703125 187.539062 56.703125 C 259.6875 56.703125 318.382812 115.398438 318.382812 187.542969 C 318.382812 259.6875 259.6875 318.382812 187.539062 318.382812 Z M 187.539062 69.609375 C 122.511719 69.609375 69.605469 122.515625 69.605469 187.542969 C 69.605469 252.574219 122.511719 305.480469 187.539062 305.480469 C 252.570312 305.480469 305.480469 252.570312 305.480469 187.542969 C 305.480469 122.511719 252.570312 69.609375 187.539062 69.609375 Z M 187.539062 69.609375 " fill-opacity="1" fill-rule="nonzero"/></g></svg>