<svg xmlns="http://www.w3.org/2000/svg" xmlns:xlink="http://www.w3.org/1999/xlink" width="1500" zoomAndPan="magnify" viewBox="0 0 1125 449.999984" height="600" preserveAspectRatio="xMidYMid meet" version="1.0"><defs><g/><clipPath id="b2686fd061"><path d="M 345.453125 0 L 779.703125 0 L 779.703125 246 L 345.453125 246 Z M 345.453125 0 " clip-rule="nonzero"/></clipPath></defs><path fill="#43c3dd" d="M 584.0625 287.820312 C 584.0625 299.503906 574.574219 309 562.894531 309 C 551.183594 309 541.691406 299.503906 541.691406 287.820312 L 541.691406 191.828125 L 532.488281 201.035156 C 524.234375 209.324219 510.808594 209.324219 502.523438 201.035156 C 494.273438 192.78125 494.273438 179.347656 502.523438 171.058594 C 536.265625 137.304688 513.855469 159.753906 547.59375 125.96875 L 547.976562 125.585938 L 548.390625 125.238281 L 548.800781 124.890625 L 549.214844 124.539062 L 549.625 124.191406 L 550.039062 123.875 L 550.484375 123.554688 L 550.929688 123.269531 L 551.371094 122.984375 L 551.816406 122.699219 L 552.261719 122.445312 L 552.738281 122.191406 L 553.183594 121.96875 L 553.65625 121.746094 L 554.132812 121.523438 L 555.085938 121.140625 L 555.5625 120.953125 L 556.070312 120.792969 L 556.546875 120.632812 L 557.054688 120.507812 L 557.53125 120.378906 L 558.039062 120.253906 L 558.546875 120.15625 L 559.023438 120.0625 L 560.039062 119.9375 L 560.546875 119.871094 L 562.070312 119.777344 L 563.085938 119.777344 L 564.609375 119.871094 L 565.117188 119.9375 L 566.132812 120.0625 L 566.609375 120.15625 L 567.117188 120.253906 L 567.625 120.378906 L 568.097656 120.507812 L 568.605469 120.632812 L 569.082031 120.792969 L 569.589844 120.953125 L 570.066406 121.140625 L 571.019531 121.523438 L 571.972656 121.96875 L 572.414062 122.191406 L 572.890625 122.445312 L 573.335938 122.699219 L 574.226562 123.269531 L 574.667969 123.554688 L 575.113281 123.875 L 575.527344 124.191406 L 575.9375 124.539062 L 576.351562 124.890625 L 576.765625 125.238281 L 577.144531 125.585938 L 577.558594 125.96875 C 611.296875 159.753906 588.855469 137.304688 622.628906 171.058594 C 630.878906 179.347656 630.878906 192.78125 622.628906 201.035156 C 614.34375 209.324219 600.917969 209.324219 592.664062 201.035156 L 584.0625 192.429688 Z M 584.0625 287.820312 " fill-opacity="1" fill-rule="evenodd"/><g clip-path="url(#b2686fd061)"><path fill="#5290c9" d="M 562.578125 0 C 601.011719 0 633.671875 24.863281 645.320312 59.410156 C 650.019531 58.269531 654.90625 57.632812 659.921875 57.632812 C 693.757812 57.632812 721.179688 85.070312 721.179688 118.917969 C 721.179688 120.378906 721.117188 121.808594 721.019531 123.238281 C 753.617188 124.601562 779.644531 151.46875 779.644531 184.429688 C 779.644531 218.277344 752.253906 245.714844 718.417969 245.714844 L 600.25 245.714844 L 600.25 222.722656 C 612.121094 225.074219 624.882812 221.675781 634.085938 212.5 C 648.65625 197.890625 648.65625 174.234375 634.085938 159.628906 C 619.042969 144.609375 604.027344 129.558594 588.855469 114.410156 L 588.160156 113.710938 L 587.460938 113.078125 L 586.921875 112.601562 L 586.03125 111.871094 L 585.300781 111.296875 L 584.699219 110.820312 L 583.777344 110.15625 L 583.015625 109.648438 L 582.222656 109.171875 L 581.558594 108.757812 L 580.636719 108.25 L 579.96875 107.867188 L 578.953125 107.359375 L 578.128906 106.980469 L 577.367188 106.628906 L 576.636719 106.3125 L 575.621094 105.933594 L 574.734375 105.613281 L 573.90625 105.328125 L 573.019531 105.074219 L 572.320312 104.882812 L 571.335938 104.628906 L 570.605469 104.441406 L 569.6875 104.28125 L 568.605469 104.089844 L 567.75 103.929688 L 566.957031 103.835938 L 566.164062 103.773438 L 565.117188 103.675781 L 564.355469 103.613281 L 563.304688 103.582031 L 562.355469 103.582031 L 560.800781 103.613281 L 559.75 103.675781 L 558.988281 103.742188 L 557.941406 103.867188 L 557.054688 103.996094 L 556.195312 104.121094 L 555.46875 104.28125 L 554.386719 104.503906 L 553.5625 104.695312 L 552.863281 104.882812 L 551.753906 105.167969 L 550.863281 105.488281 L 550.101562 105.742188 L 549.214844 106.058594 L 548.355469 106.410156 L 547.5 106.757812 L 546.832031 107.042969 L 545.945312 107.488281 L 545.246094 107.835938 L 544.230469 108.410156 L 543.4375 108.851562 L 542.804688 109.234375 L 541.851562 109.871094 L 541.089844 110.378906 L 540.453125 110.820312 L 539.566406 111.519531 L 538.835938 112.09375 L 538.265625 112.601562 L 537.40625 113.363281 L 536.675781 114.027344 L 536.167969 114.539062 C 521.15625 129.558594 506.113281 144.578125 491.097656 159.628906 C 476.5 174.203125 476.5 197.890625 491.097656 212.5 C 500.429688 221.835938 513.507812 225.199219 525.535156 222.566406 L 525.535156 245.714844 L 406.765625 245.714844 C 372.933594 245.714844 345.507812 218.277344 345.507812 184.429688 C 345.507812 151.46875 371.535156 124.601562 404.132812 123.238281 C 404.070312 121.808594 404.003906 120.378906 404.003906 118.917969 C 404.003906 85.070312 431.429688 57.632812 465.230469 57.632812 C 470.277344 57.632812 475.164062 58.269531 479.832031 59.410156 C 491.511719 24.863281 524.140625 0 562.578125 0 Z M 562.578125 0 " fill-opacity="1" fill-rule="evenodd"/></g><g fill="#ffffff" fill-opacity="1"><g transform="translate(13.735137, 418.117766)"><g><path d="M 54.574219 -33 L 32.746094 -33 L 43.660156 -63.714844 Z M 86.8125 0 L 51.785156 -86.304688 L 35.664062 -86.304688 L 0.632812 0 L 21.070312 0 L 27.289062 -17.386719 L 60.160156 -17.386719 L 66.378906 0 Z M 86.8125 0 "/></g></g></g><g fill="#ffffff" fill-opacity="1"><g transform="translate(126.557488, 418.117766)"><g><path d="M 26.398438 -17.515625 L 26.398438 -68.664062 L 32.109375 -68.664062 C 46.832031 -68.664062 56.734375 -57.496094 56.734375 -43.152344 C 56.734375 -28.8125 46.707031 -17.515625 32.109375 -17.515625 Z M 7.617188 -86.304688 L 7.617188 0 L 33.253906 0 C 57.75 0 76.152344 -18.785156 76.152344 -43.152344 C 76.152344 -67.523438 57.621094 -86.304688 33.253906 -86.304688 Z M 7.617188 -86.304688 "/></g></g></g><g fill="#ffffff" fill-opacity="1"><g transform="translate(232.52693, 418.117766)"><g><path d="M 75.390625 0 L 75.390625 -86.304688 L 56.351562 -86.304688 L 56.351562 -32.492188 L 26.652344 -86.304688 L 7.617188 -86.304688 L 7.617188 0 L 26.652344 0 L 26.652344 -53.816406 L 56.351562 0 Z M 75.390625 0 "/></g></g></g><g fill="#ffffff" fill-opacity="1"><g transform="translate(340.907596, 418.117766)"><g><path d="M 54.574219 -33 L 32.746094 -33 L 43.660156 -63.714844 Z M 86.8125 0 L 51.785156 -86.304688 L 35.664062 -86.304688 L 0.632812 0 L 21.070312 0 L 27.289062 -17.386719 L 60.160156 -17.386719 L 66.378906 0 Z M 86.8125 0 "/></g></g></g><g fill="#ffffff" fill-opacity="1"><g transform="translate(453.729947, 418.117766)"><g><path d="M 75.390625 0 L 75.390625 -86.304688 L 56.351562 -86.304688 L 56.351562 -32.492188 L 26.652344 -86.304688 L 7.617188 -86.304688 L 7.617188 0 L 26.652344 0 L 26.652344 -53.816406 L 56.351562 0 Z M 75.390625 0 "/></g></g></g><g fill="#ffffff" fill-opacity="1"><g transform="translate(562.110583, 418.117766)"><g><path d="M 84.023438 0 L 54.066406 -43.152344 L 84.023438 -86.304688 L 60.796875 -86.304688 L 42.390625 -56.351562 L 23.988281 -86.304688 L 0.761719 -86.304688 L 30.714844 -43.152344 L 0.761719 0 L 23.988281 0 L 42.390625 -29.953125 L 60.796875 0 Z M 84.023438 0 "/></g></g></g><g fill="#ffffff" fill-opacity="1"><g transform="translate(672.267948, 418.117766)"><g><path d="M 26.398438 -17.515625 L 26.398438 -68.664062 L 32.109375 -68.664062 C 46.832031 -68.664062 56.734375 -57.496094 56.734375 -43.152344 C 56.734375 -28.8125 46.707031 -17.515625 32.109375 -17.515625 Z M 7.617188 -86.304688 L 7.617188 0 L 33.253906 0 C 57.75 0 76.152344 -18.785156 76.152344 -43.152344 C 76.152344 -67.523438 57.621094 -86.304688 33.253906 -86.304688 Z M 7.617188 -86.304688 "/></g></g></g><g fill="#ffffff" fill-opacity="1"><g transform="translate(778.23742, 418.117766)"><g><path d="M 26.652344 -30.839844 L 26.78125 -30.839844 L 47.339844 0 L 71.457031 0 L 46.707031 -31.730469 C 57.621094 -34.394531 66.378906 -44.042969 66.378906 -58.636719 C 66.378906 -75.011719 53.941406 -86.304688 39.980469 -86.304688 L 7.617188 -86.304688 L 7.617188 0 L 26.652344 0 Z M 36.808594 -71.328125 C 42.390625 -71.328125 48.230469 -66.507812 48.230469 -58.636719 C 48.230469 -50.386719 42.390625 -45.820312 36.808594 -45.820312 L 26.652344 -45.820312 L 26.652344 -71.328125 Z M 36.808594 -71.328125 "/></g></g></g><g fill="#ffffff" fill-opacity="1"><g transform="translate(873.546762, 418.117766)"><g><path d="M 26.652344 0 L 26.652344 -86.304688 L 7.617188 -86.304688 L 7.617188 0 Z M 26.652344 0 "/></g></g></g><g fill="#ffffff" fill-opacity="1"><g transform="translate(933.195532, 418.117766)"><g><path d="M 86.8125 -86.304688 L 66.253906 -86.304688 L 48.355469 -37.824219 L 43.660156 -24.242188 L 38.964844 -37.824219 L 21.195312 -86.304688 L 0.632812 -86.304688 L 35.539062 0 L 51.910156 0 Z M 86.8125 -86.304688 "/></g></g></g><g fill="#ffffff" fill-opacity="1"><g transform="translate(1046.017853, 418.117766)"><g><path d="M 57.621094 -17.261719 L 26.652344 -17.261719 L 26.652344 -34.648438 L 56.351562 -34.648438 L 56.351562 -51.910156 L 26.652344 -51.910156 L 26.652344 -69.046875 L 57.621094 -69.046875 L 57.621094 -86.304688 L 7.617188 -86.304688 L 7.617188 0 L 57.621094 0 Z M 57.621094 -17.261719 "/></g></g></g></svg>