<svg xmlns="http://www.w3.org/2000/svg" xmlns:xlink="http://www.w3.org/1999/xlink" width="500" zoomAndPan="magnify" viewBox="0 0 375 374.999991" height="500" preserveAspectRatio="xMidYMid meet" version="1.0"><defs><g/><clipPath id="4b59fc9fb6"><path d="M 17.25 0 L 357.75 0 C 362.324219 0 366.710938 1.816406 369.949219 5.050781 C 373.183594 8.289062 375 12.675781 375 17.25 L 375 357.75 C 375 362.324219 373.183594 366.710938 369.949219 369.949219 C 366.710938 373.183594 362.324219 375 357.75 375 L 17.25 375 C 12.675781 375 8.289062 373.183594 5.050781 369.949219 C 1.816406 366.710938 0 362.324219 0 357.75 L 0 17.25 C 0 12.675781 1.816406 8.289062 5.050781 5.050781 C 8.289062 1.816406 12.675781 0 17.25 0 " clip-rule="nonzero"/></clipPath><clipPath id="5f77323de8"><path d="M 160 116 L 215 116 L 215 194.453125 L 160 194.453125 Z M 160 116 " clip-rule="nonzero"/></clipPath><clipPath id="579a2968cb"><path d="M 97.71875 66.933594 L 277.304688 66.933594 L 277.304688 169 L 97.71875 169 Z M 97.71875 66.933594 " clip-rule="nonzero"/></clipPath></defs><g clip-path="url(#4b59fc9fb6)"><rect x="-37.5" width="450" fill="#375a7f" y="-37.499999" height="449.999989" fill-opacity="1"/></g><g clip-path="url(#5f77323de8)"><path fill="#43c3dd" d="M 196.398438 185.710938 C 196.398438 190.535156 192.476562 194.453125 187.644531 194.453125 C 182.800781 194.453125 178.875 190.535156 178.875 185.710938 L 178.875 146.097656 L 175.070312 149.898438 C 171.65625 153.316406 166.105469 153.316406 162.679688 149.898438 C 159.265625 146.488281 159.265625 140.945312 162.679688 137.527344 C 176.632812 123.597656 167.363281 132.859375 181.316406 118.917969 L 181.476562 118.761719 L 181.644531 118.617188 L 181.988281 118.328125 L 182.15625 118.183594 L 182.328125 118.054688 L 182.511719 117.921875 L 182.878906 117.6875 L 183.0625 117.566406 L 183.246094 117.464844 L 183.445312 117.359375 L 183.628906 117.265625 L 183.824219 117.175781 L 184.023438 117.082031 L 184.414062 116.925781 L 184.613281 116.847656 L 184.820312 116.78125 L 185.019531 116.714844 L 185.230469 116.664062 L 185.425781 116.613281 L 185.636719 116.558594 L 185.847656 116.519531 L 186.042969 116.480469 L 186.253906 116.453125 L 186.464844 116.429688 L 186.671875 116.402344 L 186.882812 116.390625 L 187.09375 116.375 L 187.304688 116.363281 L 187.722656 116.363281 L 187.933594 116.375 L 188.144531 116.390625 L 188.351562 116.402344 L 188.5625 116.429688 L 188.773438 116.453125 L 188.984375 116.480469 L 189.179688 116.519531 L 189.390625 116.558594 L 189.601562 116.613281 L 189.796875 116.664062 L 190.007812 116.714844 L 190.203125 116.78125 L 190.414062 116.847656 L 190.609375 116.925781 L 190.808594 117.003906 L 191.003906 117.082031 L 191.203125 117.175781 L 191.398438 117.265625 L 191.582031 117.359375 L 191.78125 117.464844 L 191.964844 117.566406 L 192.148438 117.6875 L 192.515625 117.921875 L 192.699219 118.054688 L 192.867188 118.183594 L 193.210938 118.472656 L 193.378906 118.617188 L 193.539062 118.761719 L 193.707031 118.917969 C 207.664062 132.859375 198.382812 123.597656 212.347656 137.527344 C 215.761719 140.945312 215.761719 146.488281 212.347656 149.898438 C 208.921875 153.316406 203.371094 153.316406 199.957031 149.898438 L 196.398438 146.347656 Z M 196.398438 185.710938 " fill-opacity="1" fill-rule="evenodd"/></g><g clip-path="url(#579a2968cb)"><path fill="#5290c9" d="M 187.511719 66.933594 C 203.410156 66.933594 216.917969 77.191406 221.734375 91.449219 C 223.675781 90.980469 225.699219 90.71875 227.773438 90.71875 C 241.765625 90.71875 253.105469 102.039062 253.105469 116.007812 C 253.105469 116.613281 253.082031 117.203125 253.039062 117.792969 C 266.523438 118.355469 277.285156 129.441406 277.285156 143.042969 C 277.285156 157.011719 265.957031 168.335938 251.964844 168.335938 L 203.09375 168.335938 L 203.09375 158.847656 C 208.003906 159.816406 213.28125 158.414062 217.085938 154.628906 C 223.113281 148.601562 223.113281 138.835938 217.085938 132.808594 C 210.867188 126.609375 204.65625 120.398438 198.382812 114.148438 L 198.09375 113.859375 L 197.804688 113.597656 L 197.582031 113.402344 L 197.214844 113.097656 L 196.910156 112.863281 L 196.664062 112.667969 L 196.28125 112.390625 L 195.964844 112.183594 L 195.636719 111.984375 L 195.363281 111.816406 L 194.980469 111.605469 L 194.707031 111.449219 L 194.285156 111.238281 L 193.945312 111.082031 L 193.628906 110.9375 L 193.328125 110.804688 L 192.90625 110.648438 L 192.539062 110.519531 L 192.199219 110.398438 L 191.832031 110.296875 L 191.542969 110.214844 L 191.136719 110.113281 L 190.835938 110.03125 L 190.453125 109.96875 L 190.007812 109.890625 L 189.652344 109.824219 L 189.324219 109.785156 L 188.996094 109.757812 L 188.5625 109.71875 L 188.25 109.691406 L 187.816406 109.679688 L 187.421875 109.679688 L 186.777344 109.691406 L 186.34375 109.71875 L 186.03125 109.746094 L 185.597656 109.796875 L 185.230469 109.851562 L 184.875 109.902344 L 184.574219 109.96875 L 184.125 110.058594 L 183.785156 110.136719 L 183.496094 110.214844 L 183.035156 110.335938 L 182.667969 110.464844 L 182.355469 110.570312 L 181.988281 110.703125 L 181.632812 110.84375 L 181.277344 110.988281 L 181.003906 111.109375 L 180.636719 111.292969 L 180.347656 111.433594 L 179.925781 111.671875 L 179.597656 111.855469 L 179.335938 112.011719 L 178.941406 112.273438 L 178.625 112.484375 L 178.363281 112.667969 L 177.996094 112.957031 L 177.695312 113.191406 L 177.457031 113.402344 L 177.105469 113.714844 L 176.800781 113.992188 L 176.59375 114.199219 C 170.382812 120.398438 164.160156 126.597656 157.953125 132.808594 C 151.914062 138.824219 151.914062 148.601562 157.953125 154.628906 C 161.8125 158.480469 167.21875 159.871094 172.195312 158.78125 L 172.195312 168.335938 L 123.074219 168.335938 C 109.082031 168.335938 97.742188 157.011719 97.742188 143.042969 C 97.742188 129.441406 108.503906 118.355469 121.984375 117.792969 C 121.960938 117.203125 121.933594 116.613281 121.933594 116.007812 C 121.933594 102.039062 133.273438 90.71875 147.253906 90.71875 C 149.339844 90.71875 151.363281 90.980469 153.292969 91.449219 C 158.121094 77.191406 171.617188 66.933594 187.511719 66.933594 Z M 187.511719 66.933594 " fill-opacity="1" fill-rule="evenodd"/></g><g fill="#ffffff" fill-opacity="1"><g transform="translate(75.505177, 243.215837)"><g><path d="M 19.308594 -11.675781 L 11.585938 -11.675781 L 15.445312 -22.539062 Z M 30.710938 0 L 18.320312 -30.53125 L 12.617188 -30.53125 L 0.222656 0 L 7.453125 0 L 9.652344 -6.152344 L 21.28125 -6.152344 L 23.480469 0 Z M 30.710938 0 "/></g></g></g><g fill="#ffffff" fill-opacity="1"><g transform="translate(115.417041, 243.215837)"><g><path d="M 9.339844 -6.195312 L 9.339844 -24.289062 L 11.359375 -24.289062 C 16.566406 -24.289062 20.070312 -20.339844 20.070312 -15.265625 C 20.070312 -10.191406 16.523438 -6.195312 11.359375 -6.195312 Z M 2.695312 -30.53125 L 2.695312 0 L 11.761719 0 C 20.429688 0 26.941406 -6.644531 26.941406 -15.265625 C 26.941406 -23.886719 20.382812 -30.53125 11.761719 -30.53125 Z M 2.695312 -30.53125 "/></g></g></g><g fill="#ffffff" fill-opacity="1"><g transform="translate(152.904629, 243.215837)"><g><path d="M 26.671875 0 L 26.671875 -30.53125 L 19.933594 -30.53125 L 19.933594 -11.496094 L 9.429688 -30.53125 L 2.695312 -30.53125 L 2.695312 0 L 9.429688 0 L 9.429688 -19.039062 L 19.933594 0 Z M 26.671875 0 "/></g></g></g><g fill="#ffffff" fill-opacity="1"><g transform="translate(191.245209, 243.215837)"><g><path d="M 19.308594 -11.675781 L 11.585938 -11.675781 L 15.445312 -22.539062 Z M 30.710938 0 L 18.320312 -30.53125 L 12.617188 -30.53125 L 0.222656 0 L 7.453125 0 L 9.652344 -6.152344 L 21.28125 -6.152344 L 23.480469 0 Z M 30.710938 0 "/></g></g></g><g fill="#ffffff" fill-opacity="1"><g transform="translate(231.157073, 243.215837)"><g><path d="M 26.671875 0 L 26.671875 -30.53125 L 19.933594 -30.53125 L 19.933594 -11.496094 L 9.429688 -30.53125 L 2.695312 -30.53125 L 2.695312 0 L 9.429688 0 L 9.429688 -19.039062 L 19.933594 0 Z M 26.671875 0 "/></g></g></g><g fill="#ffffff" fill-opacity="1"><g transform="translate(269.497642, 243.215837)"><g><path d="M 29.722656 0 L 19.128906 -15.265625 L 29.722656 -30.53125 L 21.507812 -30.53125 L 14.996094 -19.933594 L 8.484375 -30.53125 L 0.269531 -30.53125 L 10.867188 -15.265625 L 0.269531 0 L 8.484375 0 L 14.996094 -10.597656 L 21.507812 0 Z M 29.722656 0 "/></g></g></g><g fill="#ffffff" fill-opacity="1"><g transform="translate(109.847606, 296.789146)"><g><path d="M 9.339844 -6.195312 L 9.339844 -24.289062 L 11.359375 -24.289062 C 16.566406 -24.289062 20.070312 -20.339844 20.070312 -15.265625 C 20.070312 -10.191406 16.523438 -6.195312 11.359375 -6.195312 Z M 2.695312 -30.53125 L 2.695312 0 L 11.761719 0 C 20.429688 0 26.941406 -6.644531 26.941406 -15.265625 C 26.941406 -23.886719 20.382812 -30.53125 11.761719 -30.53125 Z M 2.695312 -30.53125 "/></g></g></g><g fill="#ffffff" fill-opacity="1"><g transform="translate(147.335195, 296.789146)"><g><path d="M 9.429688 -10.910156 L 9.472656 -10.910156 L 16.746094 0 L 25.277344 0 L 16.523438 -11.226562 C 20.382812 -12.167969 23.480469 -15.582031 23.480469 -20.742188 C 23.480469 -26.535156 19.082031 -30.53125 14.144531 -30.53125 L 2.695312 -30.53125 L 2.695312 0 L 9.429688 0 Z M 13.019531 -25.234375 C 14.996094 -25.234375 17.0625 -23.527344 17.0625 -20.742188 C 17.0625 -17.824219 14.996094 -16.207031 13.019531 -16.207031 L 9.429688 -16.207031 L 9.429688 -25.234375 Z M 13.019531 -25.234375 "/></g></g></g><g fill="#ffffff" fill-opacity="1"><g transform="translate(181.051683, 296.789146)"><g><path d="M 9.429688 0 L 9.429688 -30.53125 L 2.695312 -30.53125 L 2.695312 0 Z M 9.429688 0 "/></g></g></g><g fill="#ffffff" fill-opacity="1"><g transform="translate(202.152952, 296.789146)"><g><path d="M 30.710938 -30.53125 L 23.4375 -30.53125 L 17.105469 -13.378906 L 15.445312 -8.574219 L 13.785156 -13.378906 L 7.5 -30.53125 L 0.222656 -30.53125 L 12.570312 0 L 18.363281 0 Z M 30.710938 -30.53125 "/></g></g></g><g fill="#ffffff" fill-opacity="1"><g transform="translate(242.064815, 296.789146)"><g><path d="M 20.382812 -6.105469 L 9.429688 -6.105469 L 9.429688 -12.257812 L 19.933594 -12.257812 L 19.933594 -18.363281 L 9.429688 -18.363281 L 9.429688 -24.425781 L 20.382812 -24.425781 L 20.382812 -30.53125 L 2.695312 -30.53125 L 2.695312 0 L 20.382812 0 Z M 20.382812 -6.105469 "/></g></g></g></svg>